# xmcd
#
# Track frame offsets:
#	150
#	12332
#	29365
#	46199
#	65755
#	83659
#	101195
#	117221
#	136639
#	148839
#	168551
#	187632
#	204811
#	218797
#	237313
#
# Disc length: 3584 seconds
#
# Revision: 1
# Processed by: cddbd v1.5.1PL2 Copyright (c) Steve Scherf et al.
# Submitted via: EasyCDDAExtractor 5.1.0
#
DISCID=c80dfe0f
DTITLE=Webbafied - Geographix
DYEAR=2004
DGENRE=Hip-Hop
TTITLE0=All Aboard
TTITLE1=Geographix (feat. Fire)
TTITLE2=Rusian Roulette (feat. Sam Frank On Sax)
TTITLE3=Blessed Assurance (feat. Heather Smith)
TTITLE4=What About Your Friends ?
TTITLE5=Funny Money
TTITLE6=Purple Onion (feat Jusic)
TTITLE7=Oye Zaragoza (feat Doble V)
TTITLE8=Ha Hu Hu Ha (feat SOS and Specs Strategy)
TTITLE9=Snapshot Rebirth
TTITLE10=One Moment
TTITLE11=Fault Line (feat Steve Style and Jusic)
TTITLE12=Arson (feat Solid Ground, I2I and Jusic)
TTITLE13=It's My Turn
TTITLE14=7-D Vision
EXTD=
EXTT0=Produced By Emile\n
EXTT1=Produced By Emile\n
EXTT2=Produced By Emile\n
EXTT3=Produced By Cochise and Christopher Liberti\n
EXTT4=Produced By Emile\n
EXTT5=Produced By Cochise and Christopher Liberti\n
EXTT6=Produced By Cochise\n
EXTT7=Produced By Steele\n
EXTT8=Produced By Pro E\n
EXTT9=Produced By Emile\n
EXTT10=Produced By SOS\n
EXTT11=Produced By Cochise\n
EXTT12=Produced by Nonezeo\n
EXTT13=Produced By Kcoc-D\n
EXTT14=Produced By Pro E\n
PLAYORDER=
